<?xml version="1.0" encoding="utf-8"?>
<!-- Generator: Adobe Illustrator 25.4.1, SVG Export Plug-In . SVG Version: 6.00 Build 0)  -->
<svg version="1.1" id="Layer_1" xmlns="http://www.w3.org/2000/svg" xmlns:xlink="http://www.w3.org/1999/xlink" x="0px" y="0px"
	 viewBox="0 0 16 16" style="enable-background:new 0 0 16 16;" xml:space="preserve">
<g>
	<path d="M13.3,8c0-0.5,0.3-0.9,0.8-0.9c0,0,0.1,0,0.1,0c0.5,0,0.9,0.4,0.9,0.9c0,0,0,0,0,0c0,0.5-0.4,0.9-0.9,0.9c0,0,0,0-0.1,0
		C13.7,9,13.3,8.6,13.3,8C13.3,8,13.3,8,13.3,8z"/>
	<path d="M9.1,8c0-0.5,0.4-0.9,0.9-0.9C10.6,7.1,11,7.5,11,8l0,0c0,0.5-0.4,0.9-0.9,0.9c0,0,0,0,0,0C9.6,9,9.2,8.6,9.1,8
		C9.1,8.1,9.1,8,9.1,8z"/>
	<path d="M0.8,8c0-0.5,0.4-0.9,0.9-0.9c0,0,0.1,0,0.1,0c0.5,0,0.9,0.4,0.9,0.9c0,0,0,0,0,0c0,0.5-0.4,0.9-0.9,0.9c0,0,0,0-0.1,0
		C1.2,9,0.8,8.6,0.8,8C0.8,8,0.8,8,0.8,8z"/>
</g>
</svg>
